<?xml version="1.0" encoding="utf-8"?>
<!-- Generator: Adobe Illustrator 19.0.0, SVG Export Plug-In . SVG Version: 6.00 Build 0)  -->
<svg version="1.1" id="Layer_1" xmlns="http://www.w3.org/2000/svg" xmlns:xlink="http://www.w3.org/1999/xlink" x="0px" y="0px"
	 viewBox="-57 28 100 98.5" style="enable-background:new -57 28 100 98.5;" xml:space="preserve">
<path d="M22.1,110.1c-0.6,0-1.3-0.2-1.8-0.7l-58.8-58.8c-1-1-1-2.6,0-3.5c1-1,2.6-1,3.5,0l58.8,58.7c1,1,1,2.6,0,3.5
	C23.4,109.8,22.7,110.1,22.1,110.1z"/>
<path d="M-36.7,110.1c-0.6,0-1.3-0.2-1.8-0.7c-1-1-1-2.6,0-3.5l58.8-58.8c1-1,2.6-1,3.5,0c1,1,1,2.6,0,3.5l-58.8,58.8
	C-35.4,109.8-36,110.1-36.7,110.1z"/>
</svg>
